<svg xmlns="http://www.w3.org/2000/svg" data-name="Layer 1" width="1093.86423" height="755.92338" viewBox="0 0 1093.86423 755.92338" xmlns:xlink="http://www.w3.org/1999/xlink"><title>web_browsing</title><path d="M349.2586,761.26691H82.39167s-5.40946-79.33881,26.59654-80.24039,28.39969,35.16152,68.51988-14.42524,88.80538-46.882,95.11642-17.58076-12.17129,52.74228,21.63786,45.52966S376.75671,706.27069,349.2586,761.26691Z" transform="translate(-53.06788 -72.03831)" fill="#f53103"/><path d="M211.32033,761.285l-.9007-.0361c2.10053-52.236,13.04052-85.79821,21.84807-104.75467,9.563-20.5833,18.77817-28.91585,18.87017-28.99773l.59915.67376c-.09069.081-9.19847,8.33079-18.68484,28.77476C224.29327,675.82132,213.41315,709.24572,211.32033,761.285Z" transform="translate(-53.06788 -72.03831)" fill="#f2f2f2"/><path d="M307.90622,761.39282l-.86548-.25181c10.42185-35.77167,34.96386-58.35689,35.21082-58.581l.60575.66737C342.61255,703.44974,318.25411,725.87516,307.90622,761.39282Z" transform="translate(-53.06788 -72.03831)" fill="#f2f2f2"/><path d="M124.42442,761.329l-.89321-.12415c3.53587-25.50126-2.85111-45.28666-8.832-57.39368-6.4759-13.109-13.86483-20.26876-13.93879-20.33964l.6238-.65065c.07506.07176,7.57822,7.34161,14.12324,20.591C121.54426,715.63248,127.99177,735.60057,124.42442,761.329Z" transform="translate(-53.06788 -72.03831)" fill="#f2f2f2"/><path d="M385.4775,762.473H53.60756l-.07656-1.12419c-.1908-2.79664-4.42434-68.76359,16.95-92.301,4.77826-5.26174,10.53408-8.02364,17.10727-8.20855,13.93257-.39632,22.6882,4.82243,29.75017,9.01121,13.3107,7.89643,22.104,13.11341,54.07548-26.40233,34.635-42.80823,72.00484-52.01789,93.48758-46.8969,13.88015,3.30957,23.44668,12.66292,26.24686,25.66209,2.65118,12.309,1.80671,23.87481,1.12831,33.16809-.7261,9.94342-1.29968,17.79746,2.78428,21.35671,3.40908,2.96978,10.21372,3.24008,21.41324.84977,22.78006-4.85952,54.56543-.70137,70.51966,19.91216,8.58367,11.09,15.34531,31.2489-1.18308,64.30628ZM55.87243,760.06087H383.98407c12.31665-24.9884,12.70119-46.09837,1.1024-61.08446-14.6357-18.90987-45.341-23.88717-68.10933-19.02941-12.16766,2.59642-19.41808,2.1677-23.50086-1.39037-4.9932-4.35073-4.38076-12.73535-3.60578-23.3507.6678-9.13958,1.49814-20.514-1.08-32.485-2.59642-12.0546-11.50752-20.73779-24.44839-23.823-20.79726-4.962-57.123,4.13166-91.0531,46.06715-33.28175,41.1352-43.30761,35.18976-57.1807,26.96-7.14913-4.24-15.2664-9.0489-28.45166-8.67495-5.89244.16607-11.07,2.66237-15.39007,7.41943C53.05635,691.82316,55.4019,751.1427,55.87243,760.06087Z" transform="translate(-53.06788 -72.03831)" fill="#cfcce0"/><path d="M1100.2586,761.26691H833.39167s-5.40946-79.33881,26.59654-80.24039,28.39969,35.16152,68.51988-14.42524,88.80538-46.882,95.11642-17.58076-12.17129,52.74228,21.63786,45.52966S1127.75671,706.27069,1100.2586,761.26691Z" transform="translate(-53.06788 -72.03831)" fill="#f53103"/><path d="M962.32033,761.285l-.9007-.0361c2.10053-52.236,13.04052-85.79821,21.84807-104.75467,9.563-20.5833,18.77817-28.91585,18.87017-28.99773l.59915.67376c-.09069.081-9.19847,8.33079-18.68484,28.77476C975.29327,675.82132,964.41315,709.24572,962.32033,761.285Z" transform="translate(-53.06788 -72.03831)" fill="#f2f2f2"/><path d="M1058.90622,761.39282l-.86548-.25181c10.42185-35.77167,34.96386-58.35689,35.21082-58.581l.60575.66737C1093.61255,703.44974,1069.25411,725.87516,1058.90622,761.39282Z" transform="translate(-53.06788 -72.03831)" fill="#f2f2f2"/><path d="M875.42442,761.329l-.89321-.12415c3.53587-25.50126-2.85111-45.28666-8.832-57.39368-6.4759-13.109-13.86483-20.26876-13.93879-20.33964l.6238-.65065c.07506.07176,7.57822,7.34161,14.12324,20.591C872.54426,715.63248,878.99177,735.60057,875.42442,761.329Z" transform="translate(-53.06788 -72.03831)" fill="#f2f2f2"/><path d="M1136.4775,762.473H804.60756l-.07656-1.12419c-.1908-2.79664-4.42434-68.76359,16.95-92.301,4.77826-5.26174,10.53408-8.02364,17.10727-8.20855,13.93257-.39632,22.6882,4.82243,29.75017,9.01121,13.3107,7.89643,22.104,13.11341,54.07548-26.40233,34.635-42.80823,72.00484-52.01789,93.48758-46.8969,13.88015,3.30957,23.44668,12.66292,26.24686,25.66209,2.65118,12.309,1.80671,23.87481,1.12831,33.16809-.7261,9.94342-1.29968,17.79746,2.78428,21.35671,3.40908,2.96978,10.21372,3.24008,21.41324.84977,22.78006-4.85952,54.56543-.70137,70.51966,19.91216,8.58367,11.09,15.34531,31.2489-1.18308,64.30628Zm-329.60507-2.41209h328.11164c12.31665-24.9884,12.70119-46.09837,1.1024-61.08446-14.6357-18.90987-45.341-23.88717-68.10933-19.02941-12.16766,2.59642-19.41808,2.1677-23.50086-1.39037-4.9932-4.35073-4.38076-12.73535-3.60578-23.3507.6678-9.13958,1.49814-20.514-1.08-32.485-2.59642-12.0546-11.50752-20.73779-24.44839-23.823-20.79726-4.962-57.123,4.13166-91.0531,46.06715-33.28175,41.1352-43.30761,35.18976-57.1807,26.96-7.14913-4.24-15.2664-9.0489-28.45166-8.67495-5.89244.16607-11.07,2.66237-15.39007,7.41943C804.05635,691.82316,806.4019,751.1427,806.87243,760.06087Z" transform="translate(-53.06788 -72.03831)" fill="#cfcce0"/><path d="M567.38915,535.96462c-23.39,0-43.9,24.43-55.21,60.91-.8,2.56-1.55,5.19-2.25,7.86a227.65016,227.65016,0,0,0-7.04,57.23c0,69.48,28.93,126,64.5,126s64.5-56.52,64.5-126S602.95916,535.96462,567.38915,535.96462Zm0,250c-34.46,0-62.5-55.63-62.5-124a226.35768,226.35768,0,0,1,7.13-57.46q.99-3.765,2.12-7.38c11.01-35.47,30.76-59.16,53.25-59.16,34.46,0,62.5,55.63,62.5,124S601.84917,785.96462,567.38915,785.96462Z" transform="translate(-53.06788 -72.03831)" fill="#3f3d56"/><path d="M582.88915,734.81521c-12.33691,0-22-32-22-72.85059s9.66309-72.85059,22-72.85059,22,32,22,72.85059S595.22606,734.81521,582.88915,734.81521Zm0-143.70118c-10.84082,0-20,32.44532-20,70.85059s9.15918,70.85059,20,70.85059,20-32.44532,20-70.85059S593.73,591.114,582.88915,591.114Z" transform="translate(-53.06788 -72.03831)" fill="#3f3d56"/><ellipse cx="532.32127" cy="589.92631" rx="8.5" ry="16.73228" fill="#cfcce0"/><polygon points="513.821 362.926 650.821 362.426 650.821 416.399 513.821 421.926 513.821 362.926" fill="#3f3d56"/><polygon points="396.819 545.981 394.823 545.872 400.875 435.926 524.821 435.926 524.821 437.926 402.768 437.926 396.819 545.981" fill="#3f3d56"/><polygon points="396.614 723.905 326.614 711.905 327.029 709.948 397.029 721.948 396.614 723.905" fill="#3f3d56"/><rect x="505.38871" y="780.82075" width="2.00088" height="85.28775" transform="translate(-408.92704 1188.52104) rotate(-85.29215)" fill="#3f3d56"/><path d="M661.13915,618.12459q-1.125,3.61506-2.12,7.38l-2.09.23-65.04,7.23-149-15,155-8,61.29,7.91Z" transform="translate(-53.06788 -72.03831)" fill="#3f3d56"/><path d="M627.06787,260.27363s-21.65829-7.73511-35.58148,23.20532-35.58149,64.97489-35.58149,64.97489l12.37617,3.094s3.094-21.6583,10.82915-24.75234l-3.09405,27.84638s92.82128,32.48745,134.59085-3.094l-1.547-10.82915s6.18809,1.547,6.18809,10.82915l4.64106-4.64106s-4.64106-9.28213-18.56426-21.6583c-9.13857-8.12318-12.279-23.57743-13.35817-33.23968a40.22386,40.22386,0,0,0-9.26065-21.90478C669.45339,259.38075,652.59373,247.9834,627.06787,260.27363Z" transform="translate(-53.06788 -72.03831)" fill="#2f2e41"/><path d="M507.38915,289.46462l-9-94s-18-51,9-47,11,43,11,43l15,98Z" transform="translate(-53.06788 -72.03831)" fill="#ffb9b9"/><polygon points="384.321 644.426 374.321 678.426 393.321 694.426 407.321 651.426 384.321 644.426" fill="#ffb9b9"/><path d="M514.38915,741.46462l-10,36,35,22s1-41,6-49Z" transform="translate(-53.06788 -72.03831)" fill="#ffb9b9"/><path d="M557.38915,549.46462l-5,10s-57-26-72,10-48,150-48,150l29,12,53-121,121-3,5-67Z" transform="translate(-53.06788 -72.03831)" fill="#2f2e41"/><path d="M599.38915,566.46462s-82-17-88,24,3,119,4,121-4,39-4,39l36,5s23-109,13-137l67.65977-4.18514c23.35564-1.44468,42.43582-19.89449,43.77891-43.25619.51413-8.9426-1.7244-17.05867-9.43868-21.55867-24-14-68-14-68-14Z" transform="translate(-53.06788 -72.03831)" fill="#2f2e41"/><path d="M440.38915,749.46462s-7-15-17-8-33,22-33,22-35.579,12.52847-4,21c28.08937,7.53538,35,6,35,6s23,4,26,2,5-34,5-34S438.38915,755.46462,440.38915,749.46462Z" transform="translate(-53.06788 -72.03831)" fill="#2f2e41"/><path d="M518.38915,780.46462s-10-14-17-8-32,23-32,23-42,12-5,23,78,9,79,5-2-33-2-33S520.38915,789.46462,518.38915,780.46462Z" transform="translate(-53.06788 -72.03831)" fill="#2f2e41"/><circle cx="585.32127" cy="251.42631" r="36" fill="#ffb9b9"/><path d="M612.38915,339.46462s-2,41-12,44-38,36-25,46,88,3,88,3l-7-52s-16-11-3-30Z" transform="translate(-53.06788 -72.03831)" fill="#ffb9b9"/><path d="M611.38915,407.46462l-7-33-23-9-19,44s-21.5,142.5-15.5,144.5a27.04163,27.04163,0,0,0,10.5,1.5s32-10,42-5,62,9,62,9,36-19,34-36,0-112,0-112l-4.5-42.5-39.45686,6.17232Z" transform="translate(-53.06788 -72.03831)" fill="#cfcce0"/><polygon points="529.321 298.426 528.321 292.426 500.321 258.426 484.321 201.426 445.321 216.426 473.321 285.426 513.321 336.426 529.321 298.426" fill="#cfcce0"/><path d="M591.09461,327.77s12.37617-17.01723,23.20532-20.11127,12.37617-18.56426,12.37617-18.56426,27.84638,30.94043,44.86361,32.48745,1.547-37.12851,1.547-37.12851l-30.94042-7.73511-29.3934,3.094-23.20532,15.47022Z" transform="translate(-53.06788 -72.03831)" fill="#2f2e41"/><polygon points="653.822 486.96 652.854 445.926 559.795 445.926 556.821 555.954 554.821 555.899 557.848 443.926 654.788 443.926 654.82 444.892 655.82 486.892 653.822 486.96" fill="#3f3d56"/><polygon points="651.821 430.926 649.821 430.926 649.821 354.595 682.101 363.966 681.542 365.887 651.821 357.258 651.821 430.926" fill="#3f3d56"/><path d="M714.38915,556.96462c-23.39,0-43.9,24.43-55.21,60.91-.8,2.56-1.55,5.19-2.25,7.86a227.65016,227.65016,0,0,0-7.04,57.23c0,69.48,28.93,126,64.5,126s64.5-56.52,64.5-126S749.95916,556.96462,714.38915,556.96462Zm0,250c-34.46,0-62.5-55.63-62.5-124a226.35768,226.35768,0,0,1,7.13-57.46q.99-3.765,2.12-7.38c11.01-35.47,30.76-59.16,53.25-59.16,34.46,0,62.5,55.63,62.5,124S748.84917,806.96462,714.38915,806.96462Z" transform="translate(-53.06788 -72.03831)" fill="#3f3d56"/><path d="M729.88915,755.81521c-12.33691,0-22-32-22-72.85059s9.66309-72.85059,22-72.85059,22,32,22,72.85059S742.22606,755.81521,729.88915,755.81521Zm0-143.70118c-10.84082,0-20,32.44532-20,70.85059s9.15918,70.85059,20,70.85059,20-32.44532,20-70.85059S740.73,612.114,729.88915,612.114Z" transform="translate(-53.06788 -72.03831)" fill="#3f3d56"/><ellipse cx="679.32127" cy="610.92631" rx="8.5" ry="16.73228" fill="#cfcce0"/><polygon points="665.821 352.926 686.821 360.926 682.821 371.926 665.821 364.926 665.821 352.926" fill="#3f3d56"/><polygon points="582.821 438.926 582.821 454.926 642.402 454.926 642.402 439.989 582.821 438.926" fill="#3f3d56"/><polygon points="429.821 430.926 429.821 446.926 489.402 446.926 489.402 431.989 429.821 430.926" fill="#3f3d56"/><path d="M686.54119,164.35329H278.91661v-92.315H686.54119ZM281.3144,161.9555h402.829V74.4361H281.3144Z" transform="translate(-53.06788 -72.03831)" fill="#3f3d56"/><rect x="258.21892" y="31.17129" width="45.55804" height="45.55804" fill="#f53103"/><path d="M350.85036,142.77316H302.89453V94.81733h47.95583Zm-45.558-2.39779h43.16025V97.21512H305.29232Z" transform="translate(-53.06788 -72.03831)" fill="#3f3d56"/><rect x="373.31292" y="32.37019" width="213.40346" height="2.39779" fill="#3f3d56"/><rect x="373.31292" y="49.15473" width="213.40346" height="2.39779" fill="#3f3d56"/><rect x="373.31292" y="65.93927" width="213.40346" height="2.39779" fill="#3f3d56"/><path d="M591.88915,464.14209h-.48608v-13.316a7.70694,7.70694,0,0,0-7.707-7.707H555.48435a7.70694,7.70694,0,0,0-7.707,7.707v73.05266a7.70694,7.70694,0,0,0,7.707,7.707H583.6961a7.70694,7.70694,0,0,0,7.707-7.707v-50.2581h.48608Z" transform="translate(-53.06788 -72.03831)" fill="#3f3d56"/><circle cx="516.76538" cy="393.77381" r="4.72081" fill="#d0cde1"/><path d="M689.46768,511.92839l-94.41317-1.77582s-52.71967,12.068-45.66742-14.29988,43.97374-6.02575,43.97374-6.02575l99.07116-3.729Z" transform="translate(-53.06788 -72.03831)" fill="#ffb9b9"/><path d="M679.88915,375.96462l9-7s15-8,18,20,25,121,3,122-78,2-78,2l6-31,46-3Z" transform="translate(-53.06788 -72.03831)" fill="#cfcce0"/><polygon points="629.821 346.926 626.821 403.926 582.821 412.926 622.821 396.926 629.821 346.926" opacity="0.15"/></svg>